<svg width="25" height="24" viewBox="0 0 25 24" fill="none" xmlns="http://www.w3.org/2000/svg">
<path d="M4.125 4H5.75063C6.318 4 6.60169 4 6.82714 4.12433C6.92011 4.17561 7.00433 4.24136 7.07662 4.31912C7.25192 4.50769 7.32073 4.7829 7.45833 5.33333L7.63993 6.05972C7.741 6.46402 7.79154 6.66617 7.86955 6.83576C8.14034 7.42449 8.6796 7.84553 9.31644 7.96546C9.49988 8 9.70826 8 10.125 8V8" stroke="#222222" stroke-linecap="round"/>
<path d="M18.125 17H7.67591C7.52971 17 7.45662 17 7.40116 16.9938C6.81357 16.928 6.41105 16.3695 6.53445 15.7913C6.54609 15.7367 6.56921 15.6674 6.61544 15.5287V15.5287C6.66677 15.3747 6.69243 15.2977 6.72079 15.2298C7.01107 14.5342 7.66777 14.0608 8.41948 14.0054C8.4929 14 8.57406 14 8.73637 14H14.125" stroke="#222222" stroke-linecap="round" stroke-linejoin="round"/>
<path d="M15.8889 14H9.81925C8.84158 14 8.0072 13.2932 7.84647 12.3288L7.4161 9.7466C7.26372 8.8323 7.96878 8 8.89569 8H18.507C19.2503 8 19.7338 8.78231 19.4014 9.44721L17.6778 12.8944C17.339 13.572 16.6465 14 15.8889 14Z" stroke="#222222" stroke-linecap="round"/>
<circle cx="17.125" cy="20" r="1" fill="#222222"/>
<circle cx="9.125" cy="20" r="1" fill="#222222"/>
</svg>
