<svg width="24" height="22" viewBox="0 0 24 22" fill="none" xmlns="http://www.w3.org/2000/svg">
<path d="M7.5 16.9922C11.2279 16.9922 14.25 14.2534 14.25 10.875C14.25 7.49657 11.2279 4.75781 7.5 4.75781C3.77208 4.75781 0.75 7.49657 0.75 10.875C0.75 14.2534 3.77208 16.9922 7.5 16.9922Z" fill="#E80B26"/>
<path d="M16.5 16.9922C20.2279 16.9922 23.25 14.2534 23.25 10.875C23.25 7.49657 20.2279 4.75781 16.5 4.75781C12.7721 4.75781 9.75 7.49657 9.75 10.875C9.75 14.2534 12.7721 16.9922 16.5 16.9922Z" fill="#F59D31"/>
<path d="M12 15.4345C13.381 14.3144 14.25 12.6867 14.25 10.8749C14.25 9.06324 13.381 7.43552 12 6.31543C10.619 7.43552 9.75 9.06324 9.75 10.8749C9.75 12.6867 10.619 14.3144 12 15.4345Z" fill="#FC6020"/>
</svg>
