<svg width="24" height="24" viewBox="0 0 24 24" fill="none" xmlns="http://www.w3.org/2000/svg">
<path d="M18.6364 7.21292C18.8702 5.68888 18.6364 4.67284 17.8182 3.73497C16.9222 2.67986 15.286 2.25 13.1822 2.25H7.14363C6.71509 2.25 6.36446 2.56262 6.28655 2.99248L3.75425 19.0145C3.71529 19.3271 3.94904 19.6007 4.26071 19.6007H8.0007L7.728 21.2419C7.68908 21.5155 7.88385 21.75 8.19548 21.75H11.3512C11.7407 21.75 12.0524 21.4765 12.0914 21.1247L12.7537 16.9825C12.7926 16.6307 13.1432 16.3572 13.4939 16.3572H13.9613C17.0001 16.3572 19.4156 15.1067 20.1168 11.5115C20.3895 10.0265 20.2727 8.73698 19.4935 7.87725C19.2597 7.60373 18.987 7.40831 18.6364 7.21292Z" fill="#009CDE"/>
<path d="M18.6364 7.21292C18.8701 5.68888 18.6364 4.67284 17.8182 3.73497C16.9222 2.67986 15.286 2.25 13.1822 2.25H7.14363C6.71509 2.25 6.36446 2.56262 6.28655 2.99248L3.75425 19.0145C3.71529 19.3271 3.94904 19.6007 4.26071 19.6007H8.0007L8.89673 13.8171C8.97465 13.3873 9.32528 13.0747 9.75383 13.0747H11.546C15.0522 13.0747 17.7793 11.6678 18.5585 7.52557C18.5974 7.44739 18.5974 7.33016 18.6364 7.21292Z" fill="#012169"/>
<path d="M9.9486 7.25201C9.9876 6.97846 10.3382 6.62675 10.6889 6.62675H15.4418C15.9872 6.62675 16.5326 6.66583 17.0001 6.74398C17.4287 6.82214 18.2078 7.01753 18.5974 7.25201C18.8312 5.72795 18.5974 4.71193 17.7793 3.77405C16.9222 2.67986 15.286 2.25 13.1822 2.25H7.14363C6.71509 2.25 6.36446 2.56262 6.28655 2.99248L3.75425 19.0145C3.71529 19.3271 3.94904 19.6007 4.26071 19.6007H8.0007L9.9486 7.25201Z" fill="#003087"/>
</svg>
