<svg width="24" height="8" viewBox="0 0 24 8" fill="none" xmlns="http://www.w3.org/2000/svg">
<g clip-path="url(#clip0_58_7706)">
<mask id="mask0_58_7706" style="mask-type:luminance" maskUnits="userSpaceOnUse" x="0" y="0" width="24" height="8">
<path d="M24 0H0V7.73684H24V0Z" fill="white"/>
</mask>
<g mask="url(#mask0_58_7706)">
<path d="M15.6321 0.00939941C13.928 0.00939941 12.4051 0.886054 12.4051 2.50574C12.4051 4.3632 15.106 4.49149 15.106 5.42463C15.106 5.81753 14.6523 6.16926 13.8774 6.16926C12.7778 6.16926 11.9559 5.6778 11.9559 5.6778L11.6043 7.31224C11.6043 7.31224 12.551 7.72738 13.8081 7.72738C15.6712 7.72738 17.1373 6.80766 17.1373 5.16031C17.1373 3.19755 14.4252 3.07307 14.4252 2.20697C14.4252 1.89914 14.7975 1.56192 15.5702 1.56192C16.4419 1.56192 17.1532 1.91935 17.1532 1.91935L17.4974 0.340762C17.4974 0.340762 16.7234 0.00939941 15.6321 0.00939941ZM0.0412732 0.128549L0 0.366824C0 0.366824 0.716924 0.497036 1.36262 0.756819C2.19399 1.05468 2.25324 1.2281 2.39324 1.7667L3.91901 7.60451H5.96438L9.11536 0.128549H7.07471L5.05001 5.21149L4.22383 0.902936C4.14805 0.409839 3.76426 0.128549 3.29446 0.128549H0.0412732ZM9.93592 0.128549L8.3351 7.60448H10.281L11.8762 0.128525L9.93592 0.128549ZM20.7891 0.128549C20.3198 0.128549 20.0711 0.377887 19.8887 0.813591L17.0378 7.60448H19.0784L19.4733 6.47265H21.9594L22.1994 7.60448H24L22.4293 0.128549H20.7891ZM21.0543 2.14831L21.6592 4.95366H20.0387L21.0543 2.14831Z" fill="#1434CB"/>
</g>
</g>
<defs>
<clipPath id="clip0_58_7706">
<rect width="24" height="7.73684" fill="white"/>
</clipPath>
</defs>
</svg>
